STARTFONT 2.1
FONT -FontForge-PanasChill-Medium-R-Normal--16-150-75-75-P-84-ISO10646-1
SIZE 15 75 75
FONTBOUNDINGBOX 15 16 -1 -4
COMMENT "Generated by fontforge, http://fontforge.sourceforge.net"
COMMENT "ElJose963"
STARTPROPERTIES 39
FOUNDRY "FontForge"
FAMILY_NAME "PanasChill"
WEIGHT_NAME "Medium"
SLANT "R"
SETWIDTH_NAME "Normal"
ADD_STYLE_NAME ""
PIXEL_SIZE 16
POINT_SIZE 150
RESOLUTION_X 75
RESOLUTION_Y 75
SPACING "P"
AVERAGE_WIDTH 84
CHARSET_REGISTRY "ISO10646"
CHARSET_ENCODING "1"
FONTNAME_REGISTRY ""
CHARSET_COLLECTIONS "ISO8859-9 ISO10646-1"
FONT_NAME "PanasChill"
FACE_NAME "PanasChill"
COPYRIGHT "ElJose963"
FONT_VERSION "001.000"
FONT_ASCENT 12
FONT_DESCENT 4
UNDERLINE_POSITION -2
UNDERLINE_THICKNESS 1
X_HEIGHT 8
CAP_HEIGHT 11
RAW_ASCENT 750
RAW_DESCENT 250
NORM_SPACE 5
RELATIVE_WEIGHT 50
RELATIVE_SETWIDTH 50
SUPERSCRIPT_X 0
SUPERSCRIPT_Y 7
SUPERSCRIPT_SIZE 11
SUBSCRIPT_X 0
SUBSCRIPT_Y 2
SUBSCRIPT_SIZE 11
AVG_LOWERCASE_WIDTH 82
AVG_UPPERCASE_WIDTH 100
ENDPROPERTIES
CHARS 201
STARTCHAR space
ENCODING 32
SWIDTH 312 0
DWIDTH 5 0
BBX 1 1 0 0
BITMAP
00
ENDCHAR
STARTCHAR exclam
ENCODING 33
SWIDTH 250 0
DWIDTH 4 0
BBX 2 12 1 0
BITMAP
C0
C0
C0
C0
C0
C0
C0
C0
C0
00
C0
C0
ENDCHAR
STARTCHAR quotedbl
ENCODING 34
SWIDTH 375 0
DWIDTH 6 0
BBX 5 4 0 7
BITMAP
D8
D8
48
90
ENDCHAR
STARTCHAR numbersign
ENCODING 35
SWIDTH 750 0
DWIDTH 12 0
BBX 11 11 0 0
BITMAP
18C0
18C0
7FE0
7FE0
3180
3180
3180
FFC0
FFC0
6300
6300
ENDCHAR
STARTCHAR dollar
ENCODING 36
SWIDTH 625 0
DWIDTH 10 0
BBX 8 13 1 -1
BITMAP
0C
3E
7F
EF
ED
FC
7E
3F
1B
DB
FE
7C
18
ENDCHAR
STARTCHAR percent
ENCODING 37
SWIDTH 875 0
DWIDTH 14 0
BBX 13 12 0 0
BITMAP
0180
7180
D980
8B00
DB00
7300
0670
06D8
0688
0CD8
0C70
0C00
ENDCHAR
STARTCHAR ampersand
ENCODING 38
SWIDTH 562 0
DWIDTH 9 0
BBX 7 12 1 0
BITMAP
7C
FE
C6
C0
C0
E0
60
CE
CE
CC
FC
78
ENDCHAR
STARTCHAR quotesingle
ENCODING 39
SWIDTH 187 0
DWIDTH 3 0
BBX 2 4 0 7
BITMAP
C0
C0
40
80
ENDCHAR
STARTCHAR parenleft
ENCODING 40
SWIDTH 375 0
DWIDTH 6 0
BBX 4 14 1 -2
BITMAP
30
70
60
E0
C0
C0
C0
C0
C0
C0
E0
60
70
30
ENDCHAR
STARTCHAR parenright
ENCODING 41
SWIDTH 375 0
DWIDTH 6 0
BBX 4 14 1 -2
BITMAP
C0
E0
60
70
30
30
30
30
30
30
70
60
E0
C0
ENDCHAR
STARTCHAR asterisk
ENCODING 42
SWIDTH 375 0
DWIDTH 6 0
BBX 5 4 0 8
BITMAP
20
F8
70
D8
ENDCHAR
STARTCHAR plus
ENCODING 43
SWIDTH 625 0
DWIDTH 10 0
BBX 8 8 1 2
BITMAP
18
18
18
FF
FF
18
18
18
ENDCHAR
STARTCHAR comma
ENCODING 44
SWIDTH 250 0
DWIDTH 4 0
BBX 2 4 1 -2
BITMAP
C0
C0
40
80
ENDCHAR
STARTCHAR hyphen
ENCODING 45
SWIDTH 625 0
DWIDTH 10 0
BBX 8 2 1 5
BITMAP
FF
FF
ENDCHAR
STARTCHAR period
ENCODING 46
SWIDTH 250 0
DWIDTH 4 0
BBX 2 2 1 0
BITMAP
C0
C0
ENDCHAR
STARTCHAR slash
ENCODING 47
SWIDTH 375 0
DWIDTH 6 0
BBX 5 12 0 0
BITMAP
18
18
18
30
30
30
60
60
60
C0
C0
C0
ENDCHAR
STARTCHAR zero
ENCODING 48
SWIDTH 500 0
DWIDTH 8 0
BBX 6 12 1 0
BITMAP
30
78
EC
CC
CC
CC
CC
CC
CC
CC
F8
70
ENDCHAR
STARTCHAR one
ENCODING 49
SWIDTH 500 0
DWIDTH 8 0
BBX 6 12 1 0
BITMAP
3C
7C
EC
CC
0C
0C
0C
0C
0C
0C
0C
0C
ENDCHAR
STARTCHAR two
ENCODING 50
SWIDTH 500 0
DWIDTH 8 0
BBX 6 12 1 0
BITMAP
78
FC
CC
0C
0C
1C
38
70
E0
C0
FC
FC
ENDCHAR
STARTCHAR three
ENCODING 51
SWIDTH 500 0
DWIDTH 8 0
BBX 6 12 1 0
BITMAP
78
FC
CC
0C
0C
1C
18
0C
0C
CC
FC
78
ENDCHAR
STARTCHAR four
ENCODING 52
SWIDTH 562 0
DWIDTH 9 0
BBX 7 12 1 0
BITMAP
1C
1C
3C
3C
6C
6C
CC
CC
FE
FE
0C
0C
ENDCHAR
STARTCHAR five
ENCODING 53
SWIDTH 500 0
DWIDTH 8 0
BBX 6 12 1 0
BITMAP
FC
FC
C0
C0
D8
FC
CC
0C
0C
CC
FC
78
ENDCHAR
STARTCHAR six
ENCODING 54
SWIDTH 500 0
DWIDTH 8 0
BBX 6 12 1 0
BITMAP
38
7C
EC
C0
D8
FC
EC
CC
CC
CC
FC
78
ENDCHAR
STARTCHAR seven
ENCODING 55
SWIDTH 500 0
DWIDTH 8 0
BBX 6 12 1 0
BITMAP
FC
FC
0C
0C
18
18
30
30
30
30
30
30
ENDCHAR
STARTCHAR eight
ENCODING 56
SWIDTH 500 0
DWIDTH 8 0
BBX 6 12 1 0
BITMAP
30
78
EC
CC
CC
CC
78
EC
CC
CC
F8
70
ENDCHAR
STARTCHAR nine
ENCODING 57
SWIDTH 500 0
DWIDTH 8 0
BBX 6 12 1 0
BITMAP
78
FC
CC
CC
CC
DC
FC
6C
0C
DC
F8
70
ENDCHAR
STARTCHAR colon
ENCODING 58
SWIDTH 250 0
DWIDTH 4 0
BBX 2 9 1 0
BITMAP
C0
C0
00
00
00
00
00
C0
C0
ENDCHAR
STARTCHAR semicolon
ENCODING 59
SWIDTH 250 0
DWIDTH 4 0
BBX 2 11 1 -2
BITMAP
C0
C0
00
00
00
00
00
C0
C0
40
80
ENDCHAR
STARTCHAR less
ENCODING 60
SWIDTH 500 0
DWIDTH 8 0
BBX 6 7 1 2
BITMAP
0C
3C
F0
C0
F0
3C
0C
ENDCHAR
STARTCHAR equal
ENCODING 61
SWIDTH 562 0
DWIDTH 9 0
BBX 7 6 1 2
BITMAP
FE
FE
00
00
FE
FE
ENDCHAR
STARTCHAR greater
ENCODING 62
SWIDTH 500 0
DWIDTH 8 0
BBX 6 7 1 2
BITMAP
C0
F0
3C
0C
3C
F0
C0
ENDCHAR
STARTCHAR question
ENCODING 63
SWIDTH 625 0
DWIDTH 10 0
BBX 7 12 2 0
BITMAP
78
FC
CE
06
06
06
1E
3C
30
00
30
30
ENDCHAR
STARTCHAR at
ENCODING 64
SWIDTH 875 0
DWIDTH 14 0
BBX 13 16 0 -4
BITMAP
0FC0
3FE0
7070
E738
CF98
C9D8
C0D8
CFD8
D9D8
D8D8
DFF8
CEF0
E0C0
7000
3FC0
1FC0
ENDCHAR
STARTCHAR A
ENCODING 65
SWIDTH 687 0
DWIDTH 11 0
BBX 9 12 1 0
BITMAP
1800
1800
3C00
3C00
3400
2600
6600
6300
7F00
FF80
C180
C180
ENDCHAR
STARTCHAR B
ENCODING 66
SWIDTH 625 0
DWIDTH 10 0
BBX 8 12 1 0
BITMAP
F8
FC
CE
C6
CE
FC
FE
C7
C3
C7
FE
FC
ENDCHAR
STARTCHAR C
ENCODING 67
SWIDTH 562 0
DWIDTH 9 0
BBX 7 12 1 0
BITMAP
3C
7E
E6
C0
C0
C0
C0
C0
C0
E6
7E
3C
ENDCHAR
STARTCHAR D
ENCODING 68
SWIDTH 625 0
DWIDTH 10 0
BBX 8 12 1 0
BITMAP
FC
FE
C7
C3
C3
C3
C3
C3
C2
C6
FC
F8
ENDCHAR
STARTCHAR E
ENCODING 69
SWIDTH 562 0
DWIDTH 9 0
BBX 7 12 1 0
BITMAP
7E
FE
E0
C0
C0
FC
FC
C0
C0
CE
FE
FC
ENDCHAR
STARTCHAR F
ENCODING 70
SWIDTH 562 0
DWIDTH 9 0
BBX 7 12 1 0
BITMAP
7E
FE
E0
C0
C0
FC
FC
C0
C0
C0
C0
C0
ENDCHAR
STARTCHAR G
ENCODING 71
SWIDTH 625 0
DWIDTH 10 0
BBX 8 12 1 0
BITMAP
3E
7F
E3
C0
C0
CF
CF
C3
C3
E7
7E
3C
ENDCHAR
STARTCHAR H
ENCODING 72
SWIDTH 687 0
DWIDTH 11 0
BBX 9 12 1 0
BITMAP
C180
C180
C180
C180
DF80
FF80
FD80
C180
C180
C180
C180
C180
ENDCHAR
STARTCHAR I
ENCODING 73
SWIDTH 250 0
DWIDTH 4 0
BBX 2 12 1 0
BITMAP
C0
C0
C0
C0
C0
C0
C0
C0
C0
C0
C0
80
ENDCHAR
STARTCHAR J
ENCODING 74
SWIDTH 562 0
DWIDTH 9 0
BBX 7 12 1 0
BITMAP
06
06
06
06
06
06
06
06
06
CE
FC
78
ENDCHAR
STARTCHAR K
ENCODING 75
SWIDTH 625 0
DWIDTH 10 0
BBX 8 12 1 0
BITMAP
C6
CE
CC
DC
D8
F0
F0
D8
DC
CE
C7
C3
ENDCHAR
STARTCHAR L
ENCODING 76
SWIDTH 562 0
DWIDTH 9 0
BBX 7 12 1 0
BITMAP
C0
C0
C0
C0
C0
C0
C0
C0
C0
DE
FE
FC
ENDCHAR
STARTCHAR M
ENCODING 77
SWIDTH 812 0
DWIDTH 13 0
BBX 11 12 1 0
BITMAP
E0E0
E0E0
F1E0
F1E0
F1E0
FBE0
FBE0
DB60
DF60
DF60
CE60
CE60
ENDCHAR
STARTCHAR N
ENCODING 78
SWIDTH 625 0
DWIDTH 10 0
BBX 8 12 1 0
BITMAP
E3
E3
F3
F3
F3
FB
FB
DB
DF
DF
CF
CF
ENDCHAR
STARTCHAR O
ENCODING 79
SWIDTH 625 0
DWIDTH 10 0
BBX 8 12 1 0
BITMAP
3C
7E
67
C3
C3
C3
C3
C3
C3
E6
7E
3C
ENDCHAR
STARTCHAR P
ENCODING 80
SWIDTH 562 0
DWIDTH 9 0
BBX 7 12 1 0
BITMAP
F8
FC
CE
C6
C6
CE
FC
F8
C0
C0
C0
C0
ENDCHAR
STARTCHAR Q
ENCODING 81
SWIDTH 625 0
DWIDTH 10 0
BBX 8 14 1 -2
BITMAP
3C
7E
67
C3
C3
C3
C3
C3
C3
E6
7E
3E
07
03
ENDCHAR
STARTCHAR R
ENCODING 82
SWIDTH 562 0
DWIDTH 9 0
BBX 7 12 1 0
BITMAP
F8
FC
CE
C6
C6
CE
FC
F8
D8
DC
CE
C6
ENDCHAR
STARTCHAR S
ENCODING 83
SWIDTH 625 0
DWIDTH 10 0
BBX 8 12 1 0
BITMAP
3E
7F
E3
C0
E0
7C
3E
07
03
C7
FE
7C
ENDCHAR
STARTCHAR T
ENCODING 84
SWIDTH 625 0
DWIDTH 10 0
BBX 9 12 0 0
BITMAP
7F80
FF80
0C00
0C00
0C00
0C00
0C00
0C00
0C00
0C00
0C00
0C00
ENDCHAR
STARTCHAR U
ENCODING 85
SWIDTH 625 0
DWIDTH 10 0
BBX 8 12 1 0
BITMAP
C3
C3
C3
C3
C3
C3
C3
C3
C3
E7
7E
3C
ENDCHAR
STARTCHAR V
ENCODING 86
SWIDTH 687 0
DWIDTH 11 0
BBX 9 12 1 0
BITMAP
C180
C180
E380
E380
6300
7700
7700
3600
3E00
3E00
1C00
1C00
ENDCHAR
STARTCHAR W
ENCODING 87
SWIDTH 875 0
DWIDTH 14 0
BBX 13 12 0 0
BITMAP
C718
C718
C718
C718
EFB8
EFB8
6DB0
6DB0
6DB0
7DF0
38E0
38E0
ENDCHAR
STARTCHAR X
ENCODING 88
SWIDTH 562 0
DWIDTH 9 0
BBX 7 12 1 0
BITMAP
C6
C6
EE
6C
7C
38
38
7C
6C
EE
C6
C6
ENDCHAR
STARTCHAR Y
ENCODING 89
SWIDTH 562 0
DWIDTH 9 0
BBX 7 12 1 0
BITMAP
C6
C6
EE
EC
7C
78
38
30
30
30
30
30
ENDCHAR
STARTCHAR Z
ENCODING 90
SWIDTH 562 0
DWIDTH 9 0
BBX 7 12 1 0
BITMAP
FE
FE
06
0E
1C
18
30
70
E0
C0
FE
FE
ENDCHAR
STARTCHAR bracketleft
ENCODING 91
SWIDTH 375 0
DWIDTH 6 0
BBX 4 14 1 -2
BITMAP
F0
F0
C0
C0
C0
C0
C0
C0
C0
C0
C0
C0
F0
F0
ENDCHAR
STARTCHAR backslash
ENCODING 92
SWIDTH 375 0
DWIDTH 6 0
BBX 5 12 0 0
BITMAP
C0
C0
C0
60
60
60
30
30
30
18
18
18
ENDCHAR
STARTCHAR bracketright
ENCODING 93
SWIDTH 375 0
DWIDTH 6 0
BBX 4 14 1 -2
BITMAP
F0
F0
30
30
30
30
30
30
30
30
30
30
F0
F0
ENDCHAR
STARTCHAR asciicircum
ENCODING 94
SWIDTH 500 0
DWIDTH 8 0
BBX 6 5 1 6
BITMAP
30
78
78
FC
CC
ENDCHAR
STARTCHAR underscore
ENCODING 95
SWIDTH 625 0
DWIDTH 10 0
BBX 9 2 0 -3
BITMAP
FF80
FF80
ENDCHAR
STARTCHAR grave
ENCODING 96
SWIDTH 312 0
DWIDTH 5 0
BBX 3 2 1 9
BITMAP
C0
60
ENDCHAR
STARTCHAR a
ENCODING 97
SWIDTH 562 0
DWIDTH 9 0
BBX 7 9 1 0
BITMAP
38
7C
4E
06
7E
CE
C6
FE
76
ENDCHAR
STARTCHAR b
ENCODING 98
SWIDTH 562 0
DWIDTH 9 0
BBX 7 11 1 0
BITMAP
C0
C0
D8
FC
EE
C6
C6
C6
E6
FE
DC
ENDCHAR
STARTCHAR c
ENCODING 99
SWIDTH 437 0
DWIDTH 7 0
BBX 5 9 1 0
BITMAP
30
78
E8
C0
C0
C0
C8
F8
70
ENDCHAR
STARTCHAR d
ENCODING 100
SWIDTH 562 0
DWIDTH 9 0
BBX 7 11 1 0
BITMAP
06
06
36
7E
EE
C6
C6
C6
CE
FE
76
ENDCHAR
STARTCHAR e
ENCODING 101
SWIDTH 500 0
DWIDTH 8 0
BBX 6 9 1 0
BITMAP
38
7C
CC
CC
FC
C0
C4
FC
78
ENDCHAR
STARTCHAR f
ENCODING 102
SWIDTH 500 0
DWIDTH 8 0
BBX 6 12 1 0
BITMAP
1C
3C
30
30
FC
FC
30
30
30
30
30
30
ENDCHAR
STARTCHAR g
ENCODING 103
SWIDTH 562 0
DWIDTH 9 0
BBX 7 13 1 -4
BITMAP
36
7E
EE
C6
C6
C6
CE
FE
76
06
C6
FE
7C
ENDCHAR
STARTCHAR h
ENCODING 104
SWIDTH 562 0
DWIDTH 9 0
BBX 7 11 1 0
BITMAP
C0
C0
D8
FC
EE
C6
C6
C6
C6
C6
C6
ENDCHAR
STARTCHAR i
ENCODING 105
SWIDTH 250 0
DWIDTH 4 0
BBX 2 12 1 0
BITMAP
C0
C0
00
C0
C0
C0
C0
C0
C0
C0
C0
C0
ENDCHAR
STARTCHAR j
ENCODING 106
SWIDTH 250 0
DWIDTH 4 0
BBX 4 15 -1 -3
BITMAP
30
30
00
30
30
30
30
30
30
30
30
30
30
F0
E0
ENDCHAR
STARTCHAR k
ENCODING 107
SWIDTH 500 0
DWIDTH 8 0
BBX 6 11 1 0
BITMAP
C0
C0
CC
DC
D8
F0
F0
D8
D8
CC
CC
ENDCHAR
STARTCHAR l
ENCODING 108
SWIDTH 250 0
DWIDTH 4 0
BBX 2 11 1 0
BITMAP
C0
C0
C0
C0
C0
C0
C0
C0
C0
C0
C0
ENDCHAR
STARTCHAR m
ENCODING 109
SWIDTH 875 0
DWIDTH 14 0
BBX 12 9 1 0
BITMAP
D8C0
FDE0
EF70
C630
C630
C630
C630
C630
C630
ENDCHAR
STARTCHAR n
ENCODING 110
SWIDTH 562 0
DWIDTH 9 0
BBX 7 9 1 0
BITMAP
D8
FC
EE
C6
C6
C6
C6
C6
C6
ENDCHAR
STARTCHAR o
ENCODING 111
SWIDTH 562 0
DWIDTH 9 0
BBX 7 9 1 0
BITMAP
38
7C
E6
C6
C6
C6
C6
FC
78
ENDCHAR
STARTCHAR p
ENCODING 112
SWIDTH 562 0
DWIDTH 9 0
BBX 7 12 1 -3
BITMAP
D8
FC
EE
C6
C6
C6
E6
FE
DC
C0
C0
C0
ENDCHAR
STARTCHAR q
ENCODING 113
SWIDTH 562 0
DWIDTH 9 0
BBX 7 12 1 -3
BITMAP
36
7E
EE
C6
C6
C6
CE
FE
76
06
06
06
ENDCHAR
STARTCHAR r
ENCODING 114
SWIDTH 437 0
DWIDTH 7 0
BBX 5 9 1 0
BITMAP
D8
F8
E0
C0
C0
C0
C0
C0
C0
ENDCHAR
STARTCHAR s
ENCODING 115
SWIDTH 500 0
DWIDTH 8 0
BBX 6 9 1 0
BITMAP
78
FC
CC
E0
78
1C
CC
FC
78
ENDCHAR
STARTCHAR t
ENCODING 116
SWIDTH 437 0
DWIDTH 7 0
BBX 6 11 0 0
BITMAP
10
30
FC
FC
30
30
30
30
30
3C
1C
ENDCHAR
STARTCHAR u
ENCODING 117
SWIDTH 562 0
DWIDTH 9 0
BBX 7 9 1 0
BITMAP
C6
C6
C6
C6
C6
C6
CE
FE
76
ENDCHAR
STARTCHAR v
ENCODING 118
SWIDTH 562 0
DWIDTH 9 0
BBX 7 9 1 0
BITMAP
C6
C6
C6
6C
6C
6C
38
38
38
ENDCHAR
STARTCHAR w
ENCODING 119
SWIDTH 875 0
DWIDTH 14 0
BBX 13 9 0 0
BITMAP
C718
C718
C718
6DB0
6DB0
6DB0
38E0
38E0
38E0
ENDCHAR
STARTCHAR x
ENCODING 120
SWIDTH 562 0
DWIDTH 9 0
BBX 7 9 1 0
BITMAP
C6
C6
6C
7C
38
7C
6C
C6
C6
ENDCHAR
STARTCHAR y
ENCODING 121
SWIDTH 562 0
DWIDTH 9 0
BBX 7 13 1 -4
BITMAP
C6
C6
C6
C6
C6
C6
CE
FE
76
06
C6
FE
7C
ENDCHAR
STARTCHAR z
ENCODING 122
SWIDTH 562 0
DWIDTH 9 0
BBX 7 9 1 0
BITMAP
FE
FE
06
1C
38
70
C0
FE
FE
ENDCHAR
STARTCHAR braceleft
ENCODING 123
SWIDTH 375 0
DWIDTH 6 0
BBX 5 15 0 -3
BITMAP
18
38
30
30
30
70
E0
C0
E0
70
30
30
30
38
18
ENDCHAR
STARTCHAR bar
ENCODING 124
SWIDTH 250 0
DWIDTH 4 0
BBX 2 15 1 -3
BITMAP
C0
C0
C0
C0
C0
C0
C0
C0
C0
C0
C0
C0
C0
C0
C0
ENDCHAR
STARTCHAR braceright
ENCODING 125
SWIDTH 375 0
DWIDTH 6 0
BBX 5 15 0 -3
BITMAP
C0
E0
60
60
60
70
38
18
38
70
60
60
60
E0
C0
ENDCHAR
STARTCHAR asciitilde
ENCODING 126
SWIDTH 625 0
DWIDTH 10 0
BBX 9 3 0 4
BITMAP
7980
FF80
CF00
ENDCHAR
STARTCHAR uni00A0
ENCODING 160
SWIDTH 312 0
DWIDTH 5 0
BBX 1 1 0 0
BITMAP
00
ENDCHAR
STARTCHAR exclamdown
ENCODING 161
SWIDTH 250 0
DWIDTH 4 0
BBX 2 12 1 -4
BITMAP
C0
C0
00
C0
C0
C0
C0
C0
C0
C0
C0
C0
ENDCHAR
STARTCHAR cent
ENCODING 162
SWIDTH 562 0
DWIDTH 9 0
BBX 7 13 1 -2
BITMAP
0C
0C
3C
7E
FA
D8
D8
D8
F2
FE
7C
30
30
ENDCHAR
STARTCHAR sterling
ENCODING 163
SWIDTH 562 0
DWIDTH 9 0
BBX 8 12 0 0
BITMAP
3C
7E
67
63
60
30
FC
FC
30
76
FF
FB
ENDCHAR
STARTCHAR currency
ENCODING 164
SWIDTH 562 0
DWIDTH 9 0
BBX 7 7 1 2
BITMAP
D6
FE
6C
C6
6C
FE
D6
ENDCHAR
STARTCHAR yen
ENCODING 165
SWIDTH 562 0
DWIDTH 9 0
BBX 8 12 0 0
BITMAP
63
63
77
76
3E
3C
FF
FF
18
FF
FF
18
ENDCHAR
STARTCHAR brokenbar
ENCODING 166
SWIDTH 250 0
DWIDTH 4 0
BBX 2 15 1 -3
BITMAP
C0
C0
C0
C0
C0
C0
00
00
00
C0
C0
C0
C0
C0
C0
ENDCHAR
STARTCHAR section
ENCODING 167
SWIDTH 625 0
DWIDTH 10 0
BBX 8 16 1 -4
BITMAP
3E
7F
E3
C0
60
FC
FE
E7
73
FF
FF
7F
03
C6
FE
7C
ENDCHAR
STARTCHAR dieresis
ENCODING 168
SWIDTH 375 0
DWIDTH 6 0
BBX 5 2 0 10
BITMAP
D8
D8
ENDCHAR
STARTCHAR copyright
ENCODING 169
SWIDTH 812 0
DWIDTH 13 0
BBX 12 15 0 -3
BITMAP
1F80
3FC0
70E0
6660
CF30
DD30
D830
D830
D830
D930
DF30
6E60
70E0
3FC0
1F80
ENDCHAR
STARTCHAR ordfeminine
ENCODING 170
SWIDTH 375 0
DWIDTH 6 0
BBX 5 6 0 6
BITMAP
70
98
08
78
98
68
ENDCHAR
STARTCHAR guillemotleft
ENCODING 171
SWIDTH 625 0
DWIDTH 10 0
BBX 8 8 1 0
BITMAP
33
77
EE
CC
CC
EE
77
33
ENDCHAR
STARTCHAR logicalnot
ENCODING 172
SWIDTH 625 0
DWIDTH 10 0
BBX 8 5 1 3
BITMAP
FF
FF
03
03
03
ENDCHAR
STARTCHAR registered
ENCODING 174
SWIDTH 812 0
DWIDTH 13 0
BBX 12 15 0 -3
BITMAP
1F80
3FC0
70E0
6060
DE30
DF30
D9B0
D9B0
DF30
DFB0
D9B0
6060
70E0
3FC0
1F80
ENDCHAR
STARTCHAR macron
ENCODING 175
SWIDTH 625 0
DWIDTH 10 0
BBX 8 2 1 10
BITMAP
FF
FF
ENDCHAR
STARTCHAR degree
ENCODING 176
SWIDTH 437 0
DWIDTH 7 0
BBX 5 5 1 7
BITMAP
70
D8
88
D8
70
ENDCHAR
STARTCHAR plusminus
ENCODING 177
SWIDTH 625 0
DWIDTH 10 0
BBX 8 11 1 -1
BITMAP
18
18
18
FF
FF
18
18
18
00
FF
FF
ENDCHAR
STARTCHAR uni00B2
ENCODING 178
SWIDTH 375 0
DWIDTH 6 0
BBX 5 7 0 5
BITMAP
70
F8
98
18
30
60
F8
ENDCHAR
STARTCHAR uni00B3
ENCODING 179
SWIDTH 375 0
DWIDTH 6 0
BBX 5 7 0 5
BITMAP
70
F8
98
38
98
F8
70
ENDCHAR
STARTCHAR acute
ENCODING 180
SWIDTH 312 0
DWIDTH 5 0
BBX 3 2 1 9
BITMAP
60
C0
ENDCHAR
STARTCHAR uni00B5
ENCODING 181
SWIDTH 562 0
DWIDTH 9 0
BBX 7 12 1 -3
BITMAP
C6
C6
C6
C6
C6
C6
E6
FE
DC
C0
C0
C0
ENDCHAR
STARTCHAR paragraph
ENCODING 182
SWIDTH 625 0
DWIDTH 10 0
BBX 9 15 0 -3
BITMAP
1F80
7F80
FB00
FB00
FB00
FB00
7B00
1B00
1B00
1B00
1B00
1B00
1B00
1B00
1B00
ENDCHAR
STARTCHAR periodcentered
ENCODING 183
SWIDTH 250 0
DWIDTH 4 0
BBX 2 2 1 5
BITMAP
C0
C0
ENDCHAR
STARTCHAR cedilla
ENCODING 184
SWIDTH 312 0
DWIDTH 5 0
BBX 4 5 0 -4
BITMAP
70
60
30
F0
E0
ENDCHAR
STARTCHAR uni00B9
ENCODING 185
SWIDTH 312 0
DWIDTH 5 0
BBX 4 6 0 6
BITMAP
30
70
F0
30
30
30
ENDCHAR
STARTCHAR ordmasculine
ENCODING 186
SWIDTH 375 0
DWIDTH 6 0
BBX 5 6 0 6
BITMAP
70
78
D8
D8
F0
70
ENDCHAR
STARTCHAR guillemotright
ENCODING 187
SWIDTH 625 0
DWIDTH 10 0
BBX 8 8 1 0
BITMAP
CC
EE
77
33
33
77
EE
CC
ENDCHAR
STARTCHAR onequarter
ENCODING 188
SWIDTH 875 0
DWIDTH 14 0
BBX 13 12 0 0
BITMAP
3180
7180
F180
3300
3300
3300
0630
0670
06B0
0CF8
0CF8
0C30
ENDCHAR
STARTCHAR onehalf
ENCODING 189
SWIDTH 875 0
DWIDTH 14 0
BBX 13 13 0 -1
BITMAP
3180
7180
F180
3300
3300
3300
0670
06F8
0698
0C18
0C30
0C60
00F8
ENDCHAR
STARTCHAR threequarters
ENCODING 190
SWIDTH 875 0
DWIDTH 14 0
BBX 13 12 0 0
BITMAP
7180
F980
9980
3B00
9B00
FB00
7630
0670
06B0
0CF8
0CF8
0C30
ENDCHAR
STARTCHAR questiondown
ENCODING 191
SWIDTH 562 0
DWIDTH 9 0
BBX 7 12 1 -3
BITMAP
18
18
00
18
78
F0
C0
C0
C0
E6
7E
3C
ENDCHAR
STARTCHAR AE
ENCODING 198
SWIDTH 937 0
DWIDTH 15 0
BBX 13 12 1 0
BITMAP
19F8
1BF8
3F00
3F00
3700
27F0
67F0
6300
7F00
FF38
C3F8
C3F0
ENDCHAR
STARTCHAR Ccedilla
ENCODING 199
SWIDTH 562 0
DWIDTH 9 0
BBX 7 15 1 -3
BITMAP
3C
7E
E6
C0
C0
C0
C0
C0
C0
E6
7E
3C
18
0C
1C
ENDCHAR
STARTCHAR Eth
ENCODING 208
SWIDTH 625 0
DWIDTH 10 0
BBX 9 12 0 0
BITMAP
7E00
7F00
6380
6180
6180
FD80
FD80
6180
6100
6300
7E00
7C00
ENDCHAR
STARTCHAR multiply
ENCODING 215
SWIDTH 562 0
DWIDTH 9 0
BBX 7 7 1 2
BITMAP
C6
EE
7C
38
7C
EE
C6
ENDCHAR
STARTCHAR Oslash
ENCODING 216
SWIDTH 812 0
DWIDTH 13 0
BBX 11 12 1 0
BITMAP
1E00
3F60
33E0
61C0
6380
6780
6F80
7D80
7980
7300
FF00
DE00
ENDCHAR
STARTCHAR Thorn
ENCODING 222
SWIDTH 687 0
DWIDTH 11 0
BBX 9 12 1 0
BITMAP
C000
C000
C000
FE00
FF00
C380
C180
C380
FF00
FE00
C000
C000
ENDCHAR
STARTCHAR germandbls
ENCODING 223
SWIDTH 625 0
DWIDTH 10 0
BBX 8 12 1 0
BITMAP
3C
7E
E6
CC
CC
D8
DC
CE
C7
DB
DF
CE
ENDCHAR
STARTCHAR agrave
ENCODING 224
SWIDTH 562 0
DWIDTH 9 0
BBX 7 12 1 0
BITMAP
30
18
00
38
7C
4E
06
7E
CE
C6
FE
76
ENDCHAR
STARTCHAR aacute
ENCODING 225
SWIDTH 562 0
DWIDTH 9 0
BBX 7 12 1 0
BITMAP
0C
18
00
38
7C
4E
06
7E
CE
C6
FE
76
ENDCHAR
STARTCHAR acircumflex
ENCODING 226
SWIDTH 562 0
DWIDTH 9 0
BBX 7 12 1 0
BITMAP
38
6C
00
38
7C
4E
06
7E
CE
C6
FE
76
ENDCHAR
STARTCHAR atilde
ENCODING 227
SWIDTH 562 0
DWIDTH 9 0
BBX 7 12 1 0
BITMAP
34
6C
00
38
7C
4E
06
7E
CE
C6
FE
76
ENDCHAR
STARTCHAR adieresis
ENCODING 228
SWIDTH 562 0
DWIDTH 9 0
BBX 7 12 1 0
BITMAP
6C
6C
00
38
7C
4E
06
7E
CE
C6
FE
76
ENDCHAR
STARTCHAR aring
ENCODING 229
SWIDTH 562 0
DWIDTH 9 0
BBX 7 12 1 0
BITMAP
10
28
10
38
7C
4E
06
7E
CE
C6
FE
76
ENDCHAR
STARTCHAR ae
ENCODING 230
SWIDTH 812 0
DWIDTH 13 0
BBX 11 9 1 0
BITMAP
39C0
7FE0
4E60
0660
7FE0
CE00
C620
FFE0
73C0
ENDCHAR
STARTCHAR ccedilla
ENCODING 231
SWIDTH 437 0
DWIDTH 7 0
BBX 5 12 1 -3
BITMAP
30
78
E8
C0
C0
C0
C8
F8
70
30
10
20
ENDCHAR
STARTCHAR egrave
ENCODING 232
SWIDTH 500 0
DWIDTH 8 0
BBX 6 12 1 0
BITMAP
60
30
00
38
7C
CC
CC
FC
C0
C4
FC
78
ENDCHAR
STARTCHAR eacute
ENCODING 233
SWIDTH 500 0
DWIDTH 8 0
BBX 6 12 1 0
BITMAP
0C
18
00
38
7C
CC
CC
FC
C0
C4
FC
78
ENDCHAR
STARTCHAR ecircumflex
ENCODING 234
SWIDTH 500 0
DWIDTH 8 0
BBX 6 12 1 0
BITMAP
38
6C
00
38
7C
CC
CC
FC
C0
C4
FC
78
ENDCHAR
STARTCHAR edieresis
ENCODING 235
SWIDTH 500 0
DWIDTH 8 0
BBX 6 12 1 0
BITMAP
6C
6C
00
38
7C
CC
CC
FC
C0
C4
FC
78
ENDCHAR
STARTCHAR igrave
ENCODING 236
SWIDTH 250 0
DWIDTH 4 0
BBX 3 12 0 0
BITMAP
C0
60
00
60
60
60
60
60
60
60
60
60
ENDCHAR
STARTCHAR iacute
ENCODING 237
SWIDTH 312 0
DWIDTH 5 0
BBX 3 12 1 0
BITMAP
60
C0
00
C0
C0
C0
C0
C0
C0
C0
C0
C0
ENDCHAR
STARTCHAR icircumflex
ENCODING 238
SWIDTH 312 0
DWIDTH 5 0
BBX 4 12 0 0
BITMAP
60
90
00
60
60
60
60
60
60
60
60
60
ENDCHAR
STARTCHAR idieresis
ENCODING 239
SWIDTH 312 0
DWIDTH 5 0
BBX 4 11 0 0
BITMAP
90
00
60
60
60
60
60
60
60
60
60
ENDCHAR
STARTCHAR eth
ENCODING 240
SWIDTH 562 0
DWIDTH 9 0
BBX 7 12 1 0
BITMAP
74
38
4C
3C
7E
E6
C6
C6
C6
C6
FC
78
ENDCHAR
STARTCHAR ntilde
ENCODING 241
SWIDTH 562 0
DWIDTH 9 0
BBX 7 12 1 0
BITMAP
34
6C
00
D8
FC
EE
C6
C6
C6
C6
C6
C6
ENDCHAR
STARTCHAR ograve
ENCODING 242
SWIDTH 562 0
DWIDTH 9 0
BBX 7 12 1 0
BITMAP
30
18
00
38
7C
E6
C6
C6
C6
C6
FC
78
ENDCHAR
STARTCHAR oacute
ENCODING 243
SWIDTH 562 0
DWIDTH 9 0
BBX 7 12 1 0
BITMAP
0C
18
00
38
7C
E6
C6
C6
C6
C6
FC
78
ENDCHAR
STARTCHAR ocircumflex
ENCODING 244
SWIDTH 562 0
DWIDTH 9 0
BBX 7 12 1 0
BITMAP
38
6C
00
38
7C
E6
C6
C6
C6
C6
FC
78
ENDCHAR
STARTCHAR otilde
ENCODING 245
SWIDTH 562 0
DWIDTH 9 0
BBX 7 12 1 0
BITMAP
34
6C
00
38
7C
E6
C6
C6
C6
C6
FC
78
ENDCHAR
STARTCHAR odieresis
ENCODING 246
SWIDTH 562 0
DWIDTH 9 0
BBX 7 12 1 0
BITMAP
6C
6C
00
38
7C
E6
C6
C6
C6
C6
FC
78
ENDCHAR
STARTCHAR divide
ENCODING 247
SWIDTH 625 0
DWIDTH 10 0
BBX 8 8 1 2
BITMAP
18
18
00
FF
FF
00
18
18
ENDCHAR
STARTCHAR oslash
ENCODING 248
SWIDTH 625 0
DWIDTH 10 0
BBX 9 10 0 -1
BITMAP
1D80
3F80
7300
6700
6F00
7F00
7B00
7E00
FC00
C000
ENDCHAR
STARTCHAR ugrave
ENCODING 249
SWIDTH 562 0
DWIDTH 9 0
BBX 7 12 1 0
BITMAP
30
18
00
C6
C6
C6
C6
C6
C6
CE
FE
76
ENDCHAR
STARTCHAR uacute
ENCODING 250
SWIDTH 562 0
DWIDTH 9 0
BBX 7 12 1 0
BITMAP
0C
18
00
C6
C6
C6
C6
C6
C6
CE
FE
76
ENDCHAR
STARTCHAR ucircumflex
ENCODING 251
SWIDTH 562 0
DWIDTH 9 0
BBX 7 12 1 0
BITMAP
38
6C
00
C6
C6
C6
C6
C6
C6
CE
FE
76
ENDCHAR
STARTCHAR udieresis
ENCODING 252
SWIDTH 562 0
DWIDTH 9 0
BBX 7 12 1 0
BITMAP
6C
6C
00
C6
C6
C6
C6
C6
C6
CE
FE
76
ENDCHAR
STARTCHAR yacute
ENCODING 253
SWIDTH 562 0
DWIDTH 9 0
BBX 7 16 1 -4
BITMAP
0C
18
00
C6
C6
C6
C6
C6
C6
CE
FE
76
06
C6
FE
7C
ENDCHAR
STARTCHAR thorn
ENCODING 254
SWIDTH 562 0
DWIDTH 9 0
BBX 7 15 1 -3
BITMAP
C0
C0
C0
DC
FE
EE
C6
C6
C6
EE
FE
DC
C0
C0
C0
ENDCHAR
STARTCHAR ydieresis
ENCODING 255
SWIDTH 562 0
DWIDTH 9 0
BBX 7 16 1 -4
BITMAP
6C
6C
00
C6
C6
C6
C6
C6
C6
CE
FE
76
06
C6
FE
7C
ENDCHAR
STARTCHAR amacron
ENCODING 257
SWIDTH 562 0
DWIDTH 9 0
BBX 7 11 1 0
BITMAP
7C
00
38
7C
4E
06
7E
CE
C6
FE
76
ENDCHAR
STARTCHAR abreve
ENCODING 259
SWIDTH 562 0
DWIDTH 9 0
BBX 7 12 1 0
BITMAP
6C
38
00
38
7C
4E
06
7E
CE
C6
FE
76
ENDCHAR
STARTCHAR Aogonek
ENCODING 260
SWIDTH 750 0
DWIDTH 12 0
BBX 10 15 1 -3
BITMAP
1800
1800
3C00
3C00
3400
2600
6600
6300
7F00
FF80
C180
C180
0300
0340
0180
ENDCHAR
STARTCHAR aogonek
ENCODING 261
SWIDTH 625 0
DWIDTH 10 0
BBX 8 12 1 -3
BITMAP
38
7C
4E
06
7E
CE
C6
FE
76
0C
0D
06
ENDCHAR
STARTCHAR cacute
ENCODING 263
SWIDTH 437 0
DWIDTH 7 0
BBX 5 12 1 0
BITMAP
18
30
00
30
78
E8
C0
C0
C0
C8
F8
70
ENDCHAR
STARTCHAR ccircumflex
ENCODING 265
SWIDTH 437 0
DWIDTH 7 0
BBX 5 12 1 0
BITMAP
70
D8
00
30
78
E8
C0
C0
C0
C8
F8
70
ENDCHAR
STARTCHAR cdotaccent
ENCODING 267
SWIDTH 437 0
DWIDTH 7 0
BBX 5 12 1 0
BITMAP
30
30
00
30
78
E8
C0
C0
C0
C8
F8
70
ENDCHAR
STARTCHAR ccaron
ENCODING 269
SWIDTH 437 0
DWIDTH 7 0
BBX 5 12 1 0
BITMAP
D8
70
00
30
78
E8
C0
C0
C0
C8
F8
70
ENDCHAR
STARTCHAR dcaron
ENCODING 271
SWIDTH 750 0
DWIDTH 12 0
BBX 10 12 1 0
BITMAP
00C0
06C0
0640
3680
7E00
EE00
C600
C600
C600
CE00
FE00
7600
ENDCHAR
STARTCHAR Dcroat
ENCODING 272
SWIDTH 625 0
DWIDTH 10 0
BBX 9 12 0 0
BITMAP
7E00
7F00
6380
6180
6180
FD80
FD80
6180
6100
6300
7E00
7C00
ENDCHAR
STARTCHAR dcroat
ENCODING 273
SWIDTH 625 0
DWIDTH 10 0
BBX 8 12 1 0
BITMAP
06
3F
06
36
7E
EE
C6
C6
C6
CE
FE
76
ENDCHAR
STARTCHAR emacron
ENCODING 275
SWIDTH 500 0
DWIDTH 8 0
BBX 6 11 1 0
BITMAP
FC
00
38
7C
CC
CC
FC
C0
C4
FC
78
ENDCHAR
STARTCHAR ebreve
ENCODING 277
SWIDTH 500 0
DWIDTH 8 0
BBX 6 12 1 0
BITMAP
6C
38
00
38
7C
CC
CC
FC
C0
C4
FC
78
ENDCHAR
STARTCHAR edotaccent
ENCODING 279
SWIDTH 500 0
DWIDTH 8 0
BBX 6 12 1 0
BITMAP
30
30
00
38
7C
CC
CC
FC
C0
C4
FC
78
ENDCHAR
STARTCHAR Eogonek
ENCODING 280
SWIDTH 562 0
DWIDTH 9 0
BBX 7 15 1 -3
BITMAP
7E
FE
E0
C0
C0
FC
FC
C0
C0
CE
FE
FC
18
1A
0C
ENDCHAR
STARTCHAR eogonek
ENCODING 281
SWIDTH 500 0
DWIDTH 8 0
BBX 6 12 1 -3
BITMAP
38
7C
CC
CC
FC
C0
C4
FC
78
30
34
18
ENDCHAR
STARTCHAR ecaron
ENCODING 283
SWIDTH 500 0
DWIDTH 8 0
BBX 6 12 1 0
BITMAP
28
10
00
38
7C
CC
CC
FC
C0
C4
FC
78
ENDCHAR
STARTCHAR gcircumflex
ENCODING 285
SWIDTH 562 0
DWIDTH 9 0
BBX 7 16 1 -4
BITMAP
10
28
00
36
7E
EE
C6
C6
C6
CE
FE
76
06
C6
FE
7C
ENDCHAR
STARTCHAR gbreve
ENCODING 287
SWIDTH 562 0
DWIDTH 9 0
BBX 7 16 1 -4
BITMAP
6C
38
00
36
7E
EE
C6
C6
C6
CE
FE
76
06
C6
FE
7C
ENDCHAR
STARTCHAR gdotaccent
ENCODING 289
SWIDTH 562 0
DWIDTH 9 0
BBX 7 16 1 -4
BITMAP
18
18
00
36
7E
EE
C6
C6
C6
CE
FE
76
06
C6
FE
7C
ENDCHAR
STARTCHAR gcommaaccent
ENCODING 291
SWIDTH 562 0
DWIDTH 9 0
BBX 7 16 1 -4
BITMAP
08
10
18
36
7E
EE
C6
C6
C6
CE
FE
76
06
C6
FE
7C
ENDCHAR
STARTCHAR Hbar
ENCODING 294
SWIDTH 750 0
DWIDTH 12 0
BBX 11 12 0 0
BITMAP
60C0
FFE0
FFE0
60C0
6FC0
7FC0
7EC0
60C0
60C0
60C0
60C0
60C0
ENDCHAR
STARTCHAR hbar
ENCODING 295
SWIDTH 562 0
DWIDTH 9 0
BBX 8 12 0 0
BITMAP
60
FC
60
6C
7E
77
63
63
63
63
63
63
ENDCHAR
STARTCHAR itilde
ENCODING 297
SWIDTH 312 0
DWIDTH 5 0
BBX 4 12 0 0
BITMAP
D0
B0
00
60
60
60
60
60
60
60
60
60
ENDCHAR
STARTCHAR imacron
ENCODING 299
SWIDTH 312 0
DWIDTH 5 0
BBX 4 11 0 0
BITMAP
F0
00
60
60
60
60
60
60
60
60
60
ENDCHAR
STARTCHAR ibreve
ENCODING 301
SWIDTH 312 0
DWIDTH 5 0
BBX 4 12 0 0
BITMAP
D0
60
00
60
60
60
60
60
60
60
60
60
ENDCHAR
STARTCHAR iogonek
ENCODING 303
SWIDTH 312 0
DWIDTH 5 0
BBX 4 15 0 -3
BITMAP
60
60
00
60
60
60
60
60
60
60
60
60
C0
D0
60
ENDCHAR
STARTCHAR Idotaccent
ENCODING 304
SWIDTH 312 0
DWIDTH 5 0
BBX 4 15 0 -3
BITMAP
60
60
60
60
60
60
60
60
60
60
60
40
C0
D0
60
ENDCHAR
STARTCHAR dotlessi
ENCODING 305
SWIDTH 250 0
DWIDTH 4 0
BBX 2 9 1 0
BITMAP
C0
C0
C0
C0
C0
C0
C0
C0
C0
ENDCHAR
STARTCHAR IJ
ENCODING 306
SWIDTH 812 0
DWIDTH 13 0
BBX 11 12 1 0
BITMAP
C060
C060
C060
C060
C060
C060
C060
C060
C060
CCE0
CFC0
8780
ENDCHAR
STARTCHAR ij
ENCODING 307
SWIDTH 500 0
DWIDTH 8 0
BBX 6 15 1 -3
BITMAP
CC
CC
00
CC
CC
CC
CC
CC
CC
CC
CC
CC
0C
3C
38
ENDCHAR
STARTCHAR Euro
ENCODING 8364
SWIDTH 562 0
DWIDTH 9 0
BBX 8 12 0 0
BITMAP
1E
3F
73
60
FF
FF
60
FF
FF
70
3F
1E
ENDCHAR
STARTCHAR uni3000
ENCODING 12288
SWIDTH 1000 0
DWIDTH 16 0
BBX 1 1 0 0
BITMAP
00
ENDCHAR
STARTCHAR .notdef
ENCODING -1
SWIDTH 365 0
DWIDTH 6 0
BBX 5 11 1 0
BITMAP
F8
88
88
88
88
88
88
88
88
88
F8
ENDCHAR
STARTCHAR .null
ENCODING -1
SWIDTH 0 0
DWIDTH 0 0
BBX 1 1 0 0
BITMAP
00
ENDCHAR
STARTCHAR nonmarkingreturn
ENCODING -1
SWIDTH 333 0
DWIDTH 5 0
BBX 1 1 0 0
BITMAP
00
ENDCHAR
ENDFONT
